<?xml version="1.0" standalone="no"?>
<!DOCTYPE svg PUBLIC "-//W3C//DTD SVG 20010904//EN"
 "http://www.w3.org/TR/2001/REC-SVG-20010904/DTD/svg10.dtd">
<svg version="1.0" xmlns="http://www.w3.org/2000/svg"
 width="512.000000pt" height="512.000000pt" viewBox="0 0 512.000000 512.000000"
 preserveAspectRatio="xMidYMid meet">

<g transform="translate(0.000000,512.000000) scale(0.100000,-0.100000)"
fill="#000000" stroke="none">
<path d="M387 5109 c-152 -36 -303 -175 -363 -334 -18 -48 -19 -117 -19 -2215
l0 -2165 23 -60 c49 -129 168 -250 302 -307 l55 -23 2175 0 2175 0 55 23 c134
57 253 178 302 307 l23 60 0 2165 0 2165 -23 60 c-49 129 -168 250 -302 307
l-55 23 -2155 2 c-1249 0 -2171 -3 -2193 -8z m4354 -332 c58 -39 54 115 54
-2217 0 -2332 4 -2178 -54 -2217 -25 -17 -142 -18 -2177 -18 -2337 0 -2182 -4
-2221 54 -17 25 -18 143 -21 2146 -2 1166 0 2139 3 2162 7 47 49 99 88 106 12
2 985 4 2162 3 2024 -1 2141 -2 2166 -19z"/>
<path d="M895 3986 c-41 -18 -83 -69 -90 -109 -4 -18 -5 -118 -3 -224 3 -210
5 -218 72 -267 26 -20 41 -21 246 -21 241 0 243 1 294 69 20 26 21 41 21 246
0 205 -1 220 -21 246 -50 67 -55 69 -282 71 -157 2 -214 0 -237 -11z"/>
<path d="M1760 3680 l0 -160 1280 0 1280 0 0 160 0 160 -1280 0 -1280 0 0
-160z"/>
<path d="M895 2866 c-41 -18 -83 -69 -90 -109 -4 -18 -5 -118 -3 -224 3 -210
5 -218 72 -267 26 -20 41 -21 246 -21 205 0 220 1 246 21 68 51 69 53 69 294
0 205 -1 220 -21 246 -50 67 -55 69 -282 71 -157 2 -214 0 -237 -11z"/>
<path d="M1760 2560 l0 -160 1280 0 1280 0 0 160 0 160 -1280 0 -1280 0 0
-160z"/>
<path d="M895 1746 c-41 -18 -83 -69 -90 -109 -4 -18 -5 -118 -3 -224 3 -210
5 -218 72 -267 26 -20 41 -21 246 -21 205 0 220 1 246 21 68 51 69 53 69 294
0 205 -1 220 -21 246 -50 67 -55 69 -282 71 -157 2 -214 0 -237 -11z"/>
<path d="M1760 1440 l0 -160 1280 0 1280 0 0 160 0 160 -1280 0 -1280 0 0
-160z"/>
</g>
</svg>
